<svg width="291" height="20" viewBox="0 0 291 20" fill="none" xmlns="http://www.w3.org/2000/svg">
<path fill-rule="evenodd" clip-rule="evenodd" d="M27 16.9762L33.5915 9.9762L37.2304 9.97621L31.2304 16.9762L27 16.9762Z" fill="url(#paint0_linear_42_29)"/>
<path fill-rule="evenodd" clip-rule="evenodd" d="M34.0913 16.9762L40.6828 9.9762L44.3217 9.97621L38.3217 16.9762L34.0913 16.9762Z" fill="url(#paint1_linear_42_29)"/>
<path fill-rule="evenodd" clip-rule="evenodd" d="M41.0913 16.9762L47.6828 9.9762L51.3217 9.97621L45.3217 16.9762L41.0913 16.9762Z" fill="url(#paint2_linear_42_29)"/>
<path d="M7 16.5C7 18.1569 5.65685 19.5 4 19.5C2.34315 19.5 1 18.1569 1 16.5C1 14.8431 2.34315 13.5 4 13.5C5.65685 13.5 7 14.8431 7 16.5ZM7 16.5H51L66.5 1L291 1" stroke="url(#paint3_linear_42_29)"/>
<defs>
<linearGradient id="paint0_linear_42_29" x1="33.0913" y1="9" x2="33.0913" y2="16" gradientUnits="userSpaceOnUse">
<stop stop-color="#418BE7"/>
<stop offset="1" stop-color="#418BE7" stop-opacity="0"/>
</linearGradient>
<linearGradient id="paint1_linear_42_29" x1="40.1826" y1="9" x2="40.1826" y2="16" gradientUnits="userSpaceOnUse">
<stop stop-color="#418BE7"/>
<stop offset="1" stop-color="#418BE7" stop-opacity="0"/>
</linearGradient>
<linearGradient id="paint2_linear_42_29" x1="47.1826" y1="9" x2="47.1826" y2="16" gradientUnits="userSpaceOnUse">
<stop stop-color="#418BE7"/>
<stop offset="1" stop-color="#418BE7" stop-opacity="0"/>
</linearGradient>
<linearGradient id="paint3_linear_42_29" x1="9" y1="17" x2="290.5" y2="17" gradientUnits="userSpaceOnUse">
<stop offset="0.546323" stop-color="#039BDA"/>
<stop offset="1" stop-color="#039BDA" stop-opacity="0"/>
</linearGradient>
</defs>
</svg>
