<svg width="202" height="69" viewBox="0 0 202 69" fill="none" xmlns="http://www.w3.org/2000/svg">
<path d="M30.56 39C31.52 39 32.28 38.2 32.28 37.28V28.6L26.2 30.32V32.92H8.88V19.48H26.2V21.24L32.28 18.64V15.16C32.28 14.2 31.52 13.44 30.56 13.44H4.52C3.56 13.44 2.8 14.2 2.8 15.16V37.28C2.8 38.2 3.56 39 4.52 39H30.56ZM52.8781 23.52H52.4381L44.7181 13.48H37.0781L49.3981 29.52H49.6381V39H55.7181V29.52H55.9181L68.2381 13.48H60.5981L52.8781 23.52ZM102.514 27.2C102.514 26.24 101.754 25.48 100.794 25.48H99.0744V25.12H99.2344C99.9944 25.12 100.674 24.56 100.794 23.76V15.16C100.794 14.2 99.9944 13.44 99.0744 13.44H73.0344V39H100.794C101.754 39 102.514 38.2 102.514 37.28V27.2ZM79.1144 19.48H94.7144V22.52H79.1144V19.48ZM96.4744 32.92H79.1144V28.6H96.4744V32.92ZM134.993 19.48L137.593 13.44H108.113V39H137.593L134.993 32.92H114.193V28.6H132.393V22.52H114.193V19.48H134.993ZM148.88 28.6H155.08L163.96 38.72C164.12 38.88 164.36 39 164.6 39H172.28L163.16 28.6H171.4C171.88 28.6 172.28 28.2 172.28 27.72V14.28C172.28 13.8 171.88 13.44 171.4 13.44H142.8V39H148.88V28.6ZM148.88 19.52H167.08V22.52H148.88V19.52Z" fill="white"/>
<path d="M107.106 57.02H117.571V53.524H107.106V51.776H119.066L120.561 48.303H103.61V63H107.106V57.02ZM139.517 63C140.069 63 140.506 62.54 140.506 62.011V49.292C140.506 48.74 140.069 48.303 139.517 48.303H124.544C123.992 48.303 123.555 48.74 123.555 49.292V62.011C123.555 62.54 123.992 63 124.544 63H139.517ZM127.051 51.776H137.01V59.504H127.051V51.776ZM146.997 57.02H150.562L155.668 62.839C155.76 62.931 155.898 63 156.036 63H160.452L155.208 57.02H159.946C160.222 57.02 160.452 56.79 160.452 56.514V48.786C160.452 48.51 160.222 48.303 159.946 48.303H143.501V63H146.997V57.02ZM146.997 51.799H157.462V53.524H146.997V51.799ZM179.633 63C180.185 63 180.622 62.54 180.622 62.011V53.524H174.642V57.02H177.126V59.504H167.167V51.776H179.127L180.622 48.303H164.66C164.108 48.303 163.671 48.74 163.671 49.292V62.011C163.671 62.54 164.108 63 164.66 63H179.633ZM199.072 51.776L200.567 48.303H183.616V63H200.567L199.072 59.504H187.112V57.02H197.577V53.524H187.112V51.776H199.072Z" fill="white"/>
</svg>
